<?xml version="1.0" encoding="utf-8"?>
<!-- Generator: Adobe Illustrator 22.1.0, SVG Export Plug-In . SVG Version: 6.00 Build 0)  -->
<svg version="1.1"
	 id="svg2" xmlns:cc="http://creativecommons.org/ns#" xmlns:dc="http://purl.org/dc/elements/1.1/" xmlns:rdf="http://www.w3.org/1999/02/22-rdf-syntax-ns#" xmlns:svg="http://www.w3.org/2000/svg"
	 xmlns="http://www.w3.org/2000/svg" xmlns:xlink="http://www.w3.org/1999/xlink" x="0px" y="0px" viewBox="0 0 744.1 744.1"
	 style="enable-background:new 0 0 744.1 744.1;" xml:space="preserve">
<style type="text/css">
	.st0{display:none;}
	.st1{fill:#B9090B;stroke:#B4B4B4;stroke-width:1.0003;stroke-linecap:square;stroke-linejoin:bevel;}
	.st2{fill:#231F20;}
	.st3{fill:#0093C6;}
</style>
<g id="layer1" transform="translate(-665.9375,-268.78125)" class="st0">
	<rect id="rect3148" x="666.4" y="269.3" class="st1" width="743.1" height="743.1"/>
</g>
<g>
	<path d="M172,411.5h41.1v1.2l9.5,9.5v16.7h-66.9l-9.5-9.5H145V306h68.1v1.2l9.5,9.5v16.7H172v25.2h15.5v1.2l9.5,9.5v16.7h-25V411.5
		z M210.7,427V414h-50.6v-39.9h25V361h-25v-39.5h50.6v-13.1h-63.3V427H210.7z"/>
	<path d="M233,429.5h-1.2V306h43.1c12,0.1,20.3,4.1,25.2,11.9c3.9,3.9,5.8,5.8,5.7,5.8c-0.1,0-0.1-0.1-0.1-0.2l0.8,0.6
		c5.1,5.1,7.7,12.8,7.7,23.2v13.1c0,21.6-9.7,32.4-29.2,32.4h-26.4v46.1h-16.1L233,429.5z M246.7,380.9h28.2
		c18.3,0,27.4-10.2,27.4-30.6v-13.1c0-19.1-9.1-28.7-27.4-28.8h-40.7V427h12.5V380.9z M246.7,321.5h27.8c10.2,0,15.3,5.4,15.3,16.1
		v13.3c0,11.3-5.1,16.9-15.3,16.9h-27.8V321.5z M258.6,365.4h15.9c8.6,0,12.9-4.8,12.9-14.5v-13.3c0-0.7,0-1.3-0.1-2
		c-0.1-0.7-0.2-1.3-0.3-2c-0.4,0-0.8,0-1.2-0.1c-0.4-0.1-0.8-0.1-1.2-0.1h-26V365.4z"/>
	<path d="M326.1,429.5h-1.2V306h63.1v1.2l9.5,9.5v16.7h-45.5v25.2h15.5v1.2l9.5,9.5v16.7h-25v53h-16.3L326.1,429.5z M385.5,321.5
		v-13.1h-58.2V427H340v-53h25V361h-25v-39.5H385.5z"/>
	<path d="M429.2,411.3H455v1.2l9.5,9.5v16.9h-51.4l-9.5-9.5h-1.2V305.2h17.3v1.2l9.5,9.5V411.3z M452.6,427v-13.3h-35.3V307.6h-12.5
		V427H452.6z"/>
	<path d="M474,429.5h-1.2V306h17.5v1.2l9.5,9.5v122.3h-16.3L474,429.5z M487.9,427V308.4h-12.7V427H487.9z"/>
	<path d="M587.4,307.2l9.7,9.5l-25.4,62.2l25.2,60h-19.3l-9.5-9.5h-1l-8.7-24.8l-11.7,34.2h-19.5l-9.5-9.5h-1.6l25.4-60.6L516.1,306
		h19.1l0.6,1.6l9.1,9.1l9.7,27l14.3-37.7H588L587.4,307.2z M584.4,308.4h-13.9l-15.1,40.7l-3.4,11.7l-3.4-12.1l-14.9-40.3h-13.9
		l24.4,60.4L519.7,427h15.5l13.9-40.7l2.8-10.5l2.8,10.5l14.1,40.7h15.3l-24.4-58.2L584.4,308.4z"/>
</g>
<g id="g3132" transform="translate(662.98062,108.45475)">
	<path id="path2999" class="st2" d="M-582.3,159.4v3.5c0,0,0,6.2,0,11.7c-5.4-6-13.7-15.2-13.7-15.2h-37.6l0,186.9l21.7,17.1
		l22.6-2.8c0,0,0.1-9.9,0.2-16.6c7.4,6.1,17.6,14.5,17.6,14.5l37-3.8V178.6l-20.1-19.2L-582.3,159.4"/>
	<path id="path3017" class="st3" d="M-576.1,306l-1.3,0.2L-599,164.4l-28.8,0l0,177.9c0,0,5.7-0.8,17.9-2.2l-1.3-135.2l1.3-0.1
		l20.6,133.2c0,0,7-0.8,31-3.2V164.4l-18.4,0L-576.1,306"/>
</g>
</svg>
