<svg xmlns="http://www.w3.org/2000/svg" viewBox="0 0 567.63 204.04"><defs><style>.cls-1{fill:#231f20;}.cls-2{fill:#0093c6;}</style></defs><title>Asset 2</title><g id="Layer_2" data-name="Layer 2"><g id="svg2"><path d="M142.56,143.68h41.1v1.21l9.47,9.47v16.72H126.24l-9.46-9.47h-1.21V38.12h68.09v1.21l9.47,9.47V65.52H142.56V90.7h15.51v1.21l9.47,9.47V118.1h-25Zm38.68,15.52V146.1H130.68V106.21h25V93.12h-25V53.63h50.56V40.54H118V159.2Z"/><path d="M203.61,161.61H202.4V38.12h43.11q17.92.21,25.18,11.89c3.89,3.89,5.81,5.84,5.74,5.84s-.1-.07-.1-.2l.81.6q7.65,7.66,7.65,23.17V92.51q0,32.44-29.21,32.44H229.19v46.13H213.07Zm13.69-48.55h28.21q27.39,0,27.4-30.62V69.35q0-28.6-27.4-28.81h-40.7V159.2H217.3Zm0-59.43h27.81q15.3,0,15.31,16.12v13.3q0,16.92-15.31,16.92H217.3Zm11.89,43.92h15.92q12.88,0,12.89-14.5V69.75c0-.67,0-1.34-.1-2s-.17-1.34-.3-2a7,7,0,0,1-1.21-.1,7.14,7.14,0,0,0-1.21-.1h-26Z"/><path d="M296.68,161.61h-1.21V38.12h63v1.21L368,48.8V65.52H322.46V90.7H338v1.21l9.46,9.47V118.1h-25v53H306.15Zm59.43-108V40.54H297.89V159.2h12.69v-53h25V93.12h-25V53.63Z"/><path d="M399.82,143.48h25.79v1.21l9.47,9.47v16.92H383.71l-9.47-9.47H373V37.31h17.32v1.21L399.82,48Zm23.37,15.72V145.9H387.94V39.73H375.45V159.2Z"/><path d="M444.55,161.61h-1.21V38.12h17.53v1.21l9.46,9.47V171.08H454Zm13.9-2.41V40.54H445.76V159.2Z"/><path d="M558,39.33l9.67,9.47-25.38,62.25,25.18,60H548.09l-9.46-9.47h-1L529,136.84l-11.69,34.24H497.73l-9.47-9.47h-1.61L512,101,486.65,38.12h19.14l.6,1.61,9.07,9.07,9.67,27,14.3-37.67h19.14Zm-3,1.21H541L525.93,81.23l-3.42,11.69-3.43-12.09-14.9-40.29h-13.9L514.65,101,490.28,159.2h15.51l13.9-40.7L522.51,108l2.82,10.47,14.1,40.7h15.31L530.37,101Z"/><g id="g3132"><path id="path2999" class="cls-1" d="M51.31,0V3.52s0,6.24,0,11.66L37.64,0H0V186.92L21.7,204l22.6-2.82s.1-9.88.17-16.58c7.42,6.11,17.59,14.46,17.59,14.46l37-3.77V19.24L79,.05,51.31,0"/><path id="path3017" class="cls-2" d="M57.48,146.62l-1.25.15L34.6,5,5.8,5V182.91s5.72-.82,17.88-2.22L22.44,45.48l1.25-.12L44.26,178.59s7-.83,30.95-3.2V5H56.84l.64,141.6"/></g></g></g></svg>