<?xml version="1.0" encoding="utf-8"?>
<!-- Generator: Adobe Illustrator 22.1.0, SVG Export Plug-In . SVG Version: 6.00 Build 0)  -->
<svg version="1.1" id="Capa_1" xmlns="http://www.w3.org/2000/svg" xmlns:xlink="http://www.w3.org/1999/xlink" x="0px" y="0px"
	 viewBox="0 0 688 688" style="enable-background:new 0 0 688 688;" xml:space="preserve">
<style type="text/css">
	.st0{fill:#0093C6;}
	.st1{fill:#FFFFFF;}
</style>
<rect class="st0" width="688" height="688"/>
<path class="st1" d="M583.6,554.4L461.8,427.6c31.3-37.2,48.5-84.1,48.5-132.9c0-114-92.7-206.7-206.7-206.7S96.8,180.7,96.8,294.7
	s92.7,206.7,206.7,206.7c42.8,0,83.6-12.9,118.4-37.4l122.8,127.7c5.1,5.3,12,8.3,19.4,8.3c7,0,13.6-2.7,18.7-7.5
	C593.6,582.2,594,565.1,583.6,554.4z M303.6,141.9c84.3,0,152.8,68.5,152.8,152.8s-68.5,152.8-152.8,152.8S150.8,379,150.8,294.7
	S219.3,141.9,303.6,141.9z"/>
</svg>
